<?xml version="1.0" standalone="no"?><!DOCTYPE svg PUBLIC "-//W3C//DTD SVG 1.1//EN" "http://www.w3.org/Graphics/SVG/1.1/DTD/svg11.dtd"><svg class="icon" width="64px" height="64.00px" viewBox="0 0 1024 1024" version="1.1" xmlns="http://www.w3.org/2000/svg"><path d="M472.96 0.7552c-2.112 0.28032-10.176 1.14688-17.92 1.92384-64.81536 6.5024-137.62432 29.89056-194.57664 62.5024C116.8448 147.42016 24.07424 286.02496 2.95168 449.92c-3.31392 25.71264-3.31392 98.44736 0 124.16C24.0768 737.99552 116.8256 876.5696 260.46336 958.81856c56.90112 32.5824 123.5648 54.05696 195.21664 62.88512 18.1376 2.23488 94.5024 2.23488 112.64 0 71.65184-8.82816 138.31552-30.30272 195.21664-62.88512C907.1744 876.5696 999.9232 737.99552 1021.04832 574.08c3.31392-25.71264 3.31392-98.44736 0-124.16C1001.6128 299.10912 920.0064 167.08096 795.52 85.04448 726.90816 39.82976 657.83936 14.21824 574.4128 3.05664 559.62368 1.07776 483.51744-0.64768 472.96 0.7552m-8.96 43.136c48.3648 30.64832 80.73984 56.59136 121.6704 97.49376 34.70592 34.68416 60.13312 65.4784 85.26336 103.264l10.75328 16.17024 6.28224-21.61152c3.45472-11.88608 6.64704-22.20288 7.09376-22.9248 0.85888-1.39008 29.86752 75.34208 37.5168 99.23712 9.21856 28.79872 16.4672 61.65504 20.81664 94.368 4.12032 30.97856 3.66336 91.06432-0.87808 115.43936-0.64384 3.45728-1.01888 6.4384-0.83328 6.624 0.1856 0.1856 10.38208-2.48192 22.65856-5.92768 12.2752-3.44704 22.51904-6.06848 22.76096-5.82528 0.58368 0.5824-28.576 56.5696-38.39616 73.7216-19.67872 34.37056-45.4656 68.59136-70.70848 93.83552-34.71616 34.71616-71.15136 58.11328-110.72 71.09888-32.83584 10.7776-52.35456 13.67552-84.9088 12.60928-42.77376-1.4016-77.75744-12.26752-117.9712-36.64256-32.29952-19.5776-55.76704-40.54784-77.02016-68.8256-18.16832-24.1728-30.99264-47.36256-43.04512-77.83552-14.82368-37.48352-23.7824-76.2304-29.29664-126.72-1.16096-10.62784-1.67808-35.47136-1.67808-80.64v-65.28l18.56 27.80544c10.208 15.29344 18.848 27.81056 19.2 27.81568 0.352 0.00512 2.55616-6.17088 4.89856-13.72544 27.34848-88.20992 84.30848-169.888 166.94144-239.38432 9.68064-8.1408 17.6-15.50848 17.6-16.37248 0-0.864-4.032-18.0992-8.96-38.29888-4.928-20.19968-8.96-37.28128-8.96-37.95968 0-1.4976-2.62912-3.04768 31.36 18.49088m-35.7184 759.82592c3.232 1.46688 6.42432 4.28032 8.32 7.33184l3.0784 4.95104v51.2c0 49.06368-0.10752 51.38688-2.58944 55.68-1.53088 2.64832-4.93184 5.67808-8.32 7.40992-5.62816 2.87744-6.37312 2.92352-41.77408 2.56l-36.04352-0.36992-4.91648-3.9616c-2.70464-2.17856-5.60384-5.92256-6.4448-8.32-1.0752-3.06688-1.5488-18.78144-1.6-53.04704-0.0704-48.01792-0.032-48.768 2.80832-54.4 2.10432-4.1728 4.41856-6.48704 8.59136-8.59136 5.49888-2.77376 6.9696-2.87872 39.68-2.85184 30.34624 0.0256 34.528 0.2816 39.21024 2.40896M649.6 803.84c3.49056 1.6896 6.34752 4.4096 8.40448 8l3.11552 5.44v49.92c0 47.87712-0.10752 50.12992-2.63424 55.04-1.79456 3.48928-4.44544 6.05056-8.32 8.04096-5.57952 2.86592-6.3616 2.91456-41.75488 2.56-34.12992-0.34176-36.25856-0.50304-39.60064-3.00032-1.94304-1.45152-4.71936-4.22912-6.17088-6.17216-2.54208-3.40352-2.65344-5.34784-3.02208-53.04064-0.2112-27.22944-0.04352-51.36256 0.3712-53.63072 0.93952-5.14176 6.32576-11.67616 11.46752-13.91616 2.91712-1.27104 12.61952-1.71392 38.37952-1.75104 31.91936-0.04608 34.86848 0.13952 39.76448 2.51008m127.36 8.96v11.52l-35.52 0.0192c-20.11008 0.01152-36.35328 0.54528-37.44 1.23264-1.44384 0.91008-2.0288 4.37248-2.35648 13.94304-0.64768 18.91712-2.18624 18.08512 33.44512 18.08512 27.06816 0 28.81664 0.1472 34.14528 2.88 9.60768 4.92672 10.44096 7.87968 10.01216 35.52-0.35072 22.65344-0.4992 23.86688-3.43936 27.98976-6.19392 8.68352-8.55296 9.07008-55.48672 9.10208L678.4 933.12v-23.04h37.504c27.46368 0 37.91488-0.41088 39.04-1.536 2.10688-2.10688 2.10688-28.10112 0-30.208-1.10336-1.10336-9.66784-1.536-30.44864-1.536-27.43808 0-29.20448-0.1472-34.624-2.88-4.1728-2.10432-6.48704-4.41856-8.59136-8.59136-2.62784-5.2096-2.87488-7.456-2.82368-25.6 0.07296-25.66784 1.9776-31.50208 11.87968-36.38528 3.4304-1.69216 10.5024-2.0096 45.344-2.03392L776.96 801.28v11.52m-231.68 0v11.52h-30.464c-21.98784 0-30.89152 0.42752-32 1.536-2.19648 2.19648-2.19648 80.49152 0 82.688 1.10848 1.10848 10.01216 1.536 32 1.536H545.28v23.04h-35.56864c-34.36288 0-35.76064-0.09728-41.20576-2.88-3.83744-1.96096-6.47808-4.51456-8.27136-8-2.52288-4.90368-2.63424-7.17568-2.63424-53.76 0-26.752 0.43136-50.17984 0.96-52.06144 1.33376-4.75648 7.11936-11.31008 11.776-13.3376 2.92736-1.27488 12.79616-1.71392 39.424-1.75104L545.28 801.28v11.52m-221.44 0v11.52h-29.52448c-17.90336 0-30.49856 0.52096-32 1.3248-2.36672 1.2672-2.47552 3.08864-2.47552 41.344 0 29.41952 0.40704 40.42624 1.536 41.5552 1.10976 1.10976 10.15424 1.536 32.64 1.536H325.12v23.1488l-37.66912-0.37376c-35.904-0.35712-37.8368-0.50048-41.28-3.0528-1.98528-1.47328-4.90624-4.5824-6.49088-6.90944-2.86592-4.2112-2.88-4.47616-2.88-54.51904 0-52.16384 0.23936-54.78016 5.52576-60.53632 5.59616-6.09536 8.13056-6.45376 45.99424-6.50752L323.84 801.28v11.52" fill="#56C2E2" /><path d="M432.64 25.55392c0 1.52448 8.77696 37.92768 9.88672 41.00608 0.38016 1.056 0.85248 3.072 1.0496 4.48 0.19712 1.408 1.8496 8.42496 3.67104 15.59168 1.82144 7.168 3.31264 13.83424 3.31264 14.81472s-8.20096 8.6528-18.22336 17.04832c-18.72768 15.6864-50.2976 46.2656-65.31712 63.26528-18.81472 21.29536-51.06176 65.11104-54.24256 73.7024-0.50048 1.35168-1.28896 2.7456-1.7536 3.0976-4.02944 3.06048-32.81792 61.13408-35.68128 71.97824-0.13568 0.51584-0.9984 2.7264-1.91744 4.91136-0.91904 2.18624-3.92064 11.11296-6.66752 19.83744-2.74816 8.72576-5.28512 15.86432-5.63712 15.8656-0.352 0-4.96-6.60224-10.24-14.67264-5.28-8.0704-10.03136-14.68416-10.56-14.69696-0.52736-0.0128-0.96-0.88704-0.96-1.94304 0-1.056-0.576-1.92-1.28-1.92s-1.28-0.6016-1.28-1.3376-3.02336-5.77536-6.72-11.2l-6.72-9.8624 0.04992 66.56c0.05248 70.17984 0.7808 82.49856 7.08224 119.68 4.60416 27.16672 17.66016 74.8288 23.30112 85.06112 0.7936 1.44 1.54624 3.21536 1.67168 3.94496 0.5056 2.94144 6.24896 15.37664 7.5072 16.25472 0.74112 0.51712 0.86656 0.94848 0.27648 0.96-1.02784 0.01792 12.61568 26.86464 14.32064 28.1792 0.45696 0.352 2.27072 3.424 4.03072 6.82624 3.53408 6.83136 21.89568 31.872 29.23904 39.87456 19.67872 21.44512 38.09536 36.53632 62.92096 51.55712 13.78048 8.33792 29.87008 17.02272 31.3664 16.93056 0.36352-0.02176 2.38208 0.84992 4.4864 1.93792 2.1056 1.08928 3.8272 1.6064 3.8272 1.14944 0-0.45568 0.79488-0.17024 1.7664 0.63616 3.07968 2.55616 23.91552 9.05344 39.8336 12.42112 11.51104 2.43584 20.86528 3.43168 37.3312 3.97056 32.5312 1.06624 52.00384-1.82272 84.9088-12.59648 16.12416-5.27872 47.36-19.60832 47.36-21.72544 0-0.62848 0.75648-1.14176 1.68064-1.14176 1.84064 0 19.14752-11.53792 31.08224-20.72192 15.74656-12.11776 34.27072-30.2336 53.41568-52.23808 13.49376-15.50976 34.88768-46.38336 47.89504-69.12 9.84448-17.20576 38.97216-73.14048 38.39104-73.7216-0.24192-0.2432-10.48576 2.37824-22.76096 5.82528-12.27648 3.44576-22.47296 6.11328-22.65856 5.92768-0.1856-0.1856 0.21504-3.24992 0.8896-6.8096 3.59808-18.97344 4.54656-84.58368 1.57824-109.14176-4.064-33.61536-11.99744-70.56896-21.57312-100.48-7.64928-23.89504-36.65792-100.6272-37.5168-99.23712-0.44672 0.72192-3.6416 11.0464-7.09888 22.944l-6.28864 21.63072-9.42976-14.26944c-5.18656-7.84768-9.95584-14.46016-10.5984-14.6944-0.64256-0.23552-1.16736-1.01632-1.16736-1.73568 0-1.2608-19.40096-27.69408-25.17504-34.29888-1.54624-1.77024-8.13568-9.5552-14.64064-17.2992-14.96064-17.80864-54.67392-57.48992-74.74432-74.68672-24.14336-20.68608-51.3792-40.62848-81.92-59.98208C429.84064 22.24384 432.64 23.88096 432.64 25.55392m62.71232 70.38336c76.22784 56.4416 146.05056 137.90208 185.79456 216.76288 4.43392 8.79744 7.50464 13.59744 7.94368 12.41984 0.39296-1.056 2.67648-8.50432 5.07264-16.55168l4.35712-14.6304 2.27072 6.9504c1.248 3.82336 2.60864 7.52768 3.02336 8.23168 0.41472 0.704 0.8448 1.856 0.95744 2.56 0.11136 0.704 2.25792 7.904 4.76928 16 8.41984 27.14496 13.92768 52.15232 18.32832 83.2 1.75872 12.416 2.27072 24.60288 2.2848 54.4 0.0192 42.32064-1.80608 59.6736-9.35936 89.00608-1.98784 7.7184-3.0656 14.03392-2.39616 14.03392 0.67072 0 7.2704-1.76256 14.66624-3.9168 7.39584-2.15552 13.69216-3.67232 13.99168-3.3728 0.736 0.736-14.08768 27.10656-23.20896 41.28768-20.27648 31.53024-51.16544 67.28704-75.47264 87.36768-5.66272 4.6784-10.58304 8.82048-10.93504 9.20448-0.352 0.384-6.688 4.56448-14.08 9.29024s-14.0416 9.0304-14.77632 9.56672c-1.88416 1.37216-20.4224 10.5728-21.30304 10.5728-0.40064 0-2.95808 0.96512-5.68448 2.14528-2.7264 1.18016-6.06336 2.34368-7.41632 2.5856-1.35168 0.24192-3.22432 1.0752-4.16 1.85088-0.9344 0.77696-1.69984 0.98304-1.69984 0.45824 0-0.5248-0.864-0.2368-1.92 0.64s-1.92 1.2608-1.92 0.85376c0-0.40704-2.44736 0.14208-5.44 1.21984-5.6384 2.03264-8.32128 2.76608-13.76 3.76576-1.76 0.32256-4.64 0.92416-6.4 1.33504-1.76 0.41088-5.216 0.97024-7.68 1.24416-2.464 0.27264-6.97216 0.83712-10.01856 1.25184-10.52672 1.43616-36.75264 0.7104-50.78144-1.40672-16.87168-2.54464-14.89664-2.14144-24.32-4.96896-4.224-1.2672-8.256-2.44096-8.96-2.60608-0.704-0.1664-2.432-0.768-3.84-1.3376a749.056 749.056 0 0 0-8.59904-3.35872c-15.93216-6.12736-46.91072-23.96928-63.08096-36.32896-9.94304-7.60064-30.61376-28.08576-39.51104-39.15648C276.77184 600.12032 248.32 506.92096 248.32 414.85952v-15.98976l12.28672 18.48576c16.20352 24.37632 33.44 45.91616 36.79488 45.98272 0.5952 0.01152-0.34304-2.4256-2.08512-5.41824-1.74208-2.99136-6.74432-12.20864-11.1168-20.48128l-7.94752-15.04128 3.38048-16.128c1.85856-8.86912 5.41696-23.12448 7.90656-31.67872 2.4896-8.55296 4.67712-16.12672 4.86016-16.83072 0.18432-0.704 0.79232-2.432 1.35168-3.84 0.56064-1.408 3.59424-9.184 6.74176-17.28 7.40864-19.05152 24.60544-53.10208 35.99872-71.27296 20.22912-32.2688 43.12448-61.05088 71.00928-89.27104 16.5824-16.7808 43.06432-40.8384 43.96416-39.93728 0.25472 0.25344-0.09984 2.98624-0.7872 6.07104-0.68608 3.08608-1.56416 7.05024-1.94944 8.81024-0.38528 1.76-3.60192 14.944-7.1488 29.2992-3.54688 14.35392-6.28736 26.2592-6.09152 26.45632 0.19712 0.19712 5.5168-8.95616 11.8208-20.3392a7993.69856 7993.69856 0 0 1 17.18272-30.88256l5.72032-10.18624 11.27936 12.10624c6.20288 6.65856 11.26272 11.24224 11.24224 10.18624-0.02048-1.056-2.90304-13.44-6.40512-27.52-3.50208-14.08-6.66752-27.04-7.03616-28.8-0.36864-1.76-2.08768-9.15072-3.8208-16.4224C473.73824 87.66464 472.32 81.13664 472.32 80.4288c0-1.26848 4.13696 1.5168 23.03232 15.50848" fill="#080404" /><path d="M592.78336 479.46368c-11.09504 2.98368-21.83936 9.4656-32.46336 19.58656-5.45536 5.1968-9.92 9.97248-9.92 10.61248 0 0.64128-1.12 2.36672-2.4896 3.83616-4.10752 4.4096-11.39328 20.38016-14.24 31.21536-3.18592 12.12416-3.80544 33.20704-1.31456 44.72576 1.77664 8.21248 8.76416 26.24 10.17088 26.24 0.4672 0 1.61536 1.73184 2.55232 3.84896C547.15136 624.20992 561.41312 638.72 563.9424 638.72c0.99968 0 1.8176 0.49792 1.8176 1.10464 0 1.55264 13.50784 7.43424 20.84096 9.0752 26.30784 5.88544 56.53376-7.33184 74.50624-32.57984 5.7536-8.08192 12.78976-21.12 11.39712-21.12-0.44928 0-0.22528-0.71936 0.49792-1.6 1.89952-2.30912 5.31456-14.73408 6.272-22.816 5.03168-42.496-15.47264-80.37376-49.13664-90.77248-9.97888-3.08224-27.00416-3.33184-37.35424-0.54784m6.08256 85.95328c12.14208 8.992 12.20992 24.92672 0.14464 33.85856-4.93312 3.65184-11.87584 4.2944-18.6112 1.7216-15.99232-6.10816-16.83328-29.45792-1.32096-36.7104 6.36928-2.97856 14.89664-2.49216 19.78752 1.13024M388.48 478.34368c-1.408 0.37632-4 1.28768-5.76 2.02368s-3.488 1.39264-3.84 1.46048c-2.69056 0.51328-8.96 3.8208-8.96 4.72704 0 0.61952-0.864 1.12512-1.92 1.12512s-1.92 0.576-1.92 1.28-0.74112 1.28-1.64864 1.28c-2.46528 0-12.85504 11.1936-17.82272 19.2-6.58048 10.60736-9.89824 19.78368-12.20352 33.75232-1.77152 10.73408-1.85472 14.45632-0.5504 24.77568 2.92608 23.16672 11.72864 42.44992 26.35776 57.73824 7.51872 7.85792 19.232 16.54528 21.42848 15.89376 0.59392-0.17536 1.07904 0.256 1.07904 0.96s0.43264 1.15712 0.96 1.00864c0.52864-0.14976 2.20928 0.42112 3.73504 1.26848C392.50304 647.66208 404.92032 650.24 413.44 650.24c10.02368 0 20.59648-2.56 29.78176-7.21024 9.88928-5.00608 23.93728-19.66848 29.57824-30.86976 2.56896-5.10336 4.30592-9.28 3.8592-9.28-0.44672 0-0.18432-0.75648 0.58368-1.68192 5.86624-7.06944 7.12192-45.8944 1.89056-58.47808-0.43904-1.056-0.992-3.072-1.2288-4.48-0.23808-1.408-3.16288-8.032-6.49984-14.72-4.85888-9.73696-8.11392-14.21696-16.33664-22.48576-9.0432-9.09312-19.78496-16.9664-24.16256-17.7088-0.8064-0.13696-2.77888-0.97024-4.384-1.85216-1.60512-0.8832-4.77312-1.95456-7.04-2.38336-5.61152-1.05856-27.83616-1.59488-31.0016-0.74624m47.82592 87.07328c12.14208 8.992 12.20992 24.92672 0.14464 33.85856-8.08064 5.98272-21.69856 3.4432-27.52512-5.13152-4.20736-6.19136-4.3904-16.50048-0.40704-22.944 5.41184-8.75776 19.744-11.74016 27.78752-5.78304M571.456 803.08096c-5.14176 2.24-10.528 8.7744-11.46752 13.91616-0.41472 2.26816-0.5824 26.40128-0.3712 53.63072 0.36864 47.6928 0.48 49.63712 3.02208 53.04064 1.45152 1.94304 4.22784 4.72064 6.17088 6.17216 3.34208 2.49728 5.47072 2.65856 39.60064 3.00032 35.39328 0.35456 36.17536 0.30592 41.75488-2.56 3.87456-1.9904 6.52544-4.55168 8.32-8.04096 2.52672-4.91008 2.63424-7.16288 2.63424-55.04v-49.92l-3.11552-5.44c-2.05696-3.5904-4.91392-6.3104-8.40448-8-4.896-2.37056-7.84512-2.55616-39.76448-2.51008-25.76 0.03712-35.4624 0.48-38.37952 1.75104m64.1984 22.6304c1.4592 1.21088 1.7856 8.91904 1.7856 42.14784 0 35.90272-0.2368 40.75776-2.02496 41.44384-4.00896 1.53856-49.85728 0.86272-51.47904-0.75904-1.12768-1.12768-1.536-11.9808-1.536-40.85504 0-21.6256 0.3328-40.18688 0.73856-41.24544 0.6208-1.61664 4.75392-1.94944 25.7344-2.06976 17.24928-0.09984 25.5488 0.31488 26.78144 1.3376M349.39136 804.16c-4.1728 2.10432-6.48704 4.41856-8.59136 8.59136-2.83392 5.62048-2.88 6.4704-2.87232 53.76 0.00384 28.57216 0.53376 49.9456 1.30688 52.72832 1.33632 4.8128 7.95008 11.23328 13.17504 12.79232 1.53472 0.45824 18.0544 0.87808 36.7104 0.93184 30.68544 0.09088 34.42944-0.13184 39.26016-2.32448 5.39648-2.44992 8.70784-6.2016 10.37952-11.76064 0.50304-1.6704 0.9152-25.50272 0.91776-52.95872l0.00256-49.92-3.0784-4.95104c-5.64608-9.08288-8.6976-9.7088-47.53024-9.7408-32.7104-0.02688-34.18112 0.07808-39.68 2.85184M414.72 825.57184c1.62432 1.02528 1.9776 7.22688 2.29248 40.28544 0.2496 26.14912-0.08192 39.92448-1.0048 41.64736C414.69824 909.95328 413.3696 910.08 389.12 910.08c-23.9104 0-25.5936-0.15488-26.8352-2.47552-0.82816-1.5488-1.3248-16.8512-1.3248-40.86912 0-33.19552 0.27264-38.66496 2.01088-40.40448 1.68704-1.68576 5.87392-2.00832 25.92-1.99168 13.15072 0.01152 24.77312 0.56576 25.82912 1.23264M690.336 803.34336c-9.87264 4.86784-11.80672 10.74432-11.87968 36.08704-0.04864 17.07904 0.27904 20.3264 2.56 25.33248 2.46016 5.4016 9.3952 11.39456 11.60448 10.03008 0.52992-0.32768 1.30176-0.04608 1.71648 0.62464 0.43776 0.70912 12.89728 1.2672 29.75616 1.33376 18.9952 0.07552 29.5872 0.59904 30.69568 1.51808 2.49088 2.0672 2.37824 28.36608-0.12928 30.44864-1.31456 1.09056-12.1728 1.47968-39.04 1.40032L678.4 910.00832V933.12h41.96864c41.00224 0 42.0992-0.06656 47.59936-2.88 3.09632-1.58336 6.24256-4.032 6.99136-5.44 0.74752-1.408 1.93664-2.97088 2.64064-3.47392 1.80736-1.28896 1.71904-52.00768-0.09344-53.21216-0.7552-0.50304-1.75488-1.9456-2.2208-3.20768-0.46592-1.26208-3.30368-3.40864-6.30656-4.77184-4.86784-2.20928-8.544-2.48064-33.9392-2.50624-35.57504-0.03456-34.04416 0.79488-33.39648-18.11328 0.32768-9.57056 0.91264-13.03296 2.35648-13.94304 1.08672-0.68736 17.32992-1.22112 37.44-1.23264L776.96 824.32v-23.04l-41.28 0.02944c-34.8416 0.02432-41.9136 0.34176-45.344 2.03392M471.45984 802.56256c-4.0896 1.64864-9.32864 6.50112-11.74144 10.87744-1.8688 3.38816-2.1184 9.71264-2.1184 53.76 0 47.87712 0.10752 50.12992 2.63424 55.04 1.79328 3.48544 4.43392 6.03904 8.27136 8 5.44512 2.78272 6.84288 2.88 41.20576 2.88H545.28v-23.04h-30.464c-21.98784 0-30.89152-0.42752-32-1.536-2.19648-2.19648-2.19648-80.49152 0-82.688 1.10848-1.10848 10.01216-1.536 32-1.536H545.28v-23.04l-35.52 0.08064c-19.53536 0.0448-36.77184 0.58624-38.30016 1.20192M248.96 803.08736c-4.70784 2.09152-8.97792 6.59968-10.79424 11.39584-0.8832 2.3296-1.36576 21.37728-1.36576 53.89056 0 50.04288 0.01408 50.30784 2.88 54.51904 1.58464 2.32704 4.5056 5.43616 6.49088 6.90944 3.4432 2.55232 5.376 2.69568 41.28 3.0528l37.66912 0.37376V910.08h-31.104c-22.48576 0-31.53024-0.42624-32.64-1.536-1.12896-1.12896-1.53088-12.05248-1.5168-41.28 0.01792-36.10496 0.52608-43.38432 3.00416-43.0528 0.44928 0.06016 14.35264 0.1088 30.89664 0.1088H323.84v-23.04l-35.52 0.04992c-26.73664 0.0384-36.46976 0.47232-39.36 1.75744" fill="#080404" /><path d="M362.97088 826.33088c-1.73824 1.73952-2.01088 7.20896-2.01088 40.40448 0 24.01792 0.49664 39.32032 1.3248 40.86912 1.2416 2.32064 2.9248 2.47552 26.8352 2.47552 24.2496 0 25.57824-0.12672 26.88768-2.57536 0.92288-1.72288 1.2544-15.49824 1.0048-41.64736-0.31488-33.05856-0.66816-39.26016-2.29248-40.28544-1.056-0.66688-12.6784-1.22112-25.82912-1.23264-20.04608-0.01664-24.23296 0.30592-25.92 1.99168M584.64 825.7024c-2.05824 1.19808-2.24 4.55936-2.24 41.3056 0 29.40416 0.40704 40.40704 1.536 41.536 1.62176 1.62176 47.47008 2.2976 51.47904 0.75904 1.78816-0.68608 2.02496-5.53344 2.02496-41.344 0-29.84576-0.40576-40.9728-1.536-42.10304-1.95328-1.95328-47.93728-2.09152-51.264-0.1536" fill="#56C2E2" /><path d="M384.23296 303.98848c-9.11744 9.97632-15.78752 20.00512-23.24608 34.94912-6.32448 12.67072-14.45376 35.2-16.03072 44.4224-0.77952 4.56192-0.29952 4.01536 4.41088-5.0176 2.90688-5.57568 7.90528-14.07872 11.10784-18.89536 5.72416-8.60928 17.85984-22.80704 19.49568-22.80704 0.45824 0 2.25536 2.68032 3.9936 5.95712 3.72224 7.01696 16.128 23.27552 15.82976 20.74624-0.11264-0.95872-1.4272-8.65536-2.92096-17.10336-1.49376-8.448-3.05408-20.544-3.46624-26.88-0.41344-6.336-1.11488-14.06208-1.55904-17.16992l-0.80768-5.64864-6.80704 7.44704M501.9584 351.60448c-10.85056 21.5808-15.32672 41.2672-16.24448 71.43552l-0.62208 20.48 3.18592-13.44c1.7536-7.392 4.42624-16.896 5.94048-21.12 3.22048-8.98048 10.79808-24.448 12.49024-25.49376 0.64384-0.39808 2.12352 0.7296 3.28832 2.50624 2.37056 3.61856 22.63808 20.05888 23.57376 19.1232 0.33024-0.33024-0.26368-1.61152-1.31968-2.848-2.59712-3.04-11.6928-24.2176-19.06688-44.39552l-6.04672-16.54656-5.17888 10.29888M613.79968 308.68224c-1.2992 17.41184-4.35072 40.34816-6.43968 48.38272-0.9984 3.84256-1.632 7.16928-1.40928 7.39328 1.14432 1.14304 16.95232-21.19296 19.11552-27.00928 1.56288-4.20224 23.98208 24.40448 31.71712 40.47104 1.60896 3.34464 3.35104 6.08 3.87072 6.08 1.34016 0-3.34464-16.27904-8.62592-29.97248-8.08704-20.96896-20.25984-40.7296-32.27008-52.38528l-5.06752-4.91776-0.89088 11.95776" fill="#080404" /><path d="M579.0784 564.28672c-15.51232 7.25248-14.67136 30.60224 1.32096 36.7104C594.04032 606.20672 608 596.80128 608 582.4c0-14.83136-15.36384-24.45312-28.9216-18.11328M416.5184 564.28672c-7.15264 3.34464-10.7584 9.47328-10.7584 18.28736 0 9.15968 4.07936 15.36768 12.11392 18.43584C431.48032 606.20672 445.44 596.78208 445.44 582.4c0-14.83136-15.36384-24.45312-28.9216-18.11328" fill="#56C2E2" /><path d="M491.52 223.7952c0 7.03616-2.96704 19.53408-9.92256 41.80224l-4.79744 15.35872 4.48-4.52736c6.03264-6.09536 12.04096-13.41312 17.00736-20.71552 2.26176-3.32672 4.58752-6.06208 5.16736-6.08 0.58112-0.01792 7.63648 6.5472 15.68 14.592C527.17952 272.2688 533.76 278.56896 533.76 278.22592c0-2.95552-11.77728-25.8304-18.2464-35.44064C510.15424 234.8224 494.5152 217.6 492.64512 217.6c-0.61952 0-1.12512 2.78784-1.12512 6.1952" fill="#080404" /></svg>